HIERARCHY
ROOT Hips
{
	OFFSET -14.64140 90.27770 -84.91600
	CHANNELS 6 Xposition Yposition Zposition Zrotation Xrotation Yrotation
	JOINT Spine
	{
		OFFSET 0.00000 13.20850 -1.60436
		CHANNELS 3 Zrotation Xrotation Yrotation
		JOINT Spine1
		{
			OFFSET 0.00000 8.61716 0.00000
			CHANNELS 3 Zrotation Xrotation Yrotation
			JOINT Spine2
			{
				OFFSET 0.00000 8.61717 0.00000
				CHANNELS 3 Zrotation Xrotation Yrotation
				JOINT Spine3
				{
					OFFSET 0.00000 8.61717 0.00000
					CHANNELS 3 Zrotation Xrotation Yrotation
					JOINT Neck
					{
						OFFSET 0.00000 11.07920 1.10792
						CHANNELS 3 Zrotation Xrotation Yrotation
						JOINT Neck1
						{
							OFFSET 0.00000 7.08032 0.00000
							CHANNELS 3 Zrotation Xrotation Yrotation
							JOINT Head
							{
								OFFSET 0.00000 7.08031 0.00000
								CHANNELS 3 Zrotation Xrotation Yrotation
								End site
								{
									OFFSET 0.00000 0.00000 0.00000
								}
							}
						}
					}
					JOINT RightShoulder
					{
						OFFSET -0.01000 7.91373 5.19711
						CHANNELS 3 Zrotation Xrotation Yrotation
						JOINT RightArm
						{
							OFFSET -18.41580 0.00000 0.00000
							CHANNELS 3 Zrotation Xrotation Yrotation
							JOINT RightForeArm
							{
								OFFSET -29.11090 0.00000 0.00000
								CHANNELS 3 Zrotation Xrotation Yrotation
								JOINT RightHand
								{
									OFFSET -24.65040 0.00000 0.00000
									CHANNELS 3 Zrotation Xrotation Yrotation
									JOINT RightHandThumb1
									{
										OFFSET -5.35114 -0.85590 3.97906
										CHANNELS 3 Zrotation Xrotation Yrotation
										JOINT RightHandThumb2
										{
											OFFSET -4.52789 0.00000 0.00000
											CHANNELS 3 Zrotation Xrotation Yrotation
											JOINT RightHandThumb3
											{
												OFFSET -2.46976 0.00000 0.00000
												CHANNELS 3 Zrotation Xrotation Yrotation
												End site
												{
													OFFSET 0.00000 0.00000 0.00000
												}
											}
										}
									}
									JOINT RightHandIndex1
									{
										OFFSET -14.26970 0.00000 2.88139
										CHANNELS 3 Zrotation Xrotation Yrotation
										JOINT RightHandIndex2
										{
											OFFSET -5.48836 0.00000 0.00000
											CHANNELS 3 Zrotation Xrotation Yrotation
											JOINT RightHandIndex3
											{
												OFFSET -3.01859 0.00000 0.00000
												CHANNELS 3 Zrotation Xrotation Yrotation
												End site
												{
													OFFSET 0.00000 0.00000 0.00000
												}
											}
										}
									}
									JOINT RightHandMiddle1
									{
										OFFSET -14.26970 0.00000 -0.09147
										CHANNELS 3 Zrotation Xrotation Yrotation
										JOINT RightHandMiddle2
										{
											OFFSET -6.17441 0.00000 0.00000
											CHANNELS 3 Zrotation Xrotation Yrotation
											JOINT RightHandMiddle3
											{
												OFFSET -3.56743 0.00000 0.00000
												CHANNELS 3 Zrotation Xrotation Yrotation
												End site
												{
													OFFSET 0.00000 0.00000 0.00000
												}
											}
										}
									}
									JOINT RightHandRing1
									{
										OFFSET -12.69180 0.00000 -3.06433
										CHANNELS 3 Zrotation Xrotation Yrotation
										JOINT RightHandRing2
										{
											OFFSET -5.62556 0.00000 0.00000
											CHANNELS 3 Zrotation Xrotation Yrotation
											JOINT RightHandRing3
											{
												OFFSET -3.56744 0.00000 0.00000
												CHANNELS 3 Zrotation Xrotation Yrotation
												End site
												{
													OFFSET 0.00000 0.00000 0.00000
												}
											}
										}
									}
									JOINT RightHandPinky1
									{
										OFFSET -11.11390 0.00000 -6.03719
										CHANNELS 3 Zrotation Xrotation Yrotation
										JOINT RightHandPinky2
										{
											OFFSET -4.52789 0.00000 0.00000
											CHANNELS 3 Zrotation Xrotation Yrotation
											JOINT RightHandPinky3
											{
												OFFSET -2.46976 0.00000 0.00000
												CHANNELS 3 Zrotation Xrotation Yrotation
												End site
												{
													OFFSET 0.00000 0.00000 0.00000
												}
											}
										}
									}
								}
							}
						}
					}
					JOINT LeftShoulder
					{
						OFFSET 0.01000 7.91373 5.19711
						CHANNELS 3 Zrotation Xrotation Yrotation
						JOINT LeftArm
						{
							OFFSET 18.41580 0.00000 0.00000
							CHANNELS 3 Zrotation Xrotation Yrotation
							JOINT LeftForeArm
							{
								OFFSET 29.11090 0.00000 0.00000
								CHANNELS 3 Zrotation Xrotation Yrotation
								JOINT LeftHand
								{
									OFFSET 24.65040 0.00000 0.00000
									CHANNELS 3 Zrotation Xrotation Yrotation
									JOINT LeftHandThumb1
									{
										OFFSET 5.35114 -0.85590 3.97906
										CHANNELS 3 Zrotation Xrotation Yrotation
										JOINT LeftHandThumb2
										{
											OFFSET 4.52789 0.00000 0.00000
											CHANNELS 3 Zrotation Xrotation Yrotation
											JOINT LeftHandThumb3
											{
												OFFSET 2.46977 0.00000 0.00000
												CHANNELS 3 Zrotation Xrotation Yrotation
												End site
												{
													OFFSET 0.00000 0.00000 0.00000
												}
											}
										}
									}
									JOINT LeftHandIndex1
									{
										OFFSET 14.26970 0.00000 2.88139
										CHANNELS 3 Zrotation Xrotation Yrotation
										JOINT LeftHandIndex2
										{
											OFFSET 5.48836 0.00000 0.00000
											CHANNELS 3 Zrotation Xrotation Yrotation
											JOINT LeftHandIndex3
											{
												OFFSET 3.01859 0.00000 0.00000
												CHANNELS 3 Zrotation Xrotation Yrotation
												End site
												{
													OFFSET 0.00000 0.00000 0.00000
												}
											}
										}
									}
									JOINT LeftHandMiddle1
									{
										OFFSET 14.26970 0.00000 -0.09147
										CHANNELS 3 Zrotation Xrotation Yrotation
										JOINT LeftHandMiddle2
										{
											OFFSET 6.17440 0.00000 0.00000
											CHANNELS 3 Zrotation Xrotation Yrotation
											JOINT LeftHandMiddle3
											{
												OFFSET 3.56744 0.00000 0.00000
												CHANNELS 3 Zrotation Xrotation Yrotation
												End site
												{
													OFFSET 0.00000 0.00000 0.00000
												}
											}
										}
									}
									JOINT LeftHandRing1
									{
										OFFSET 12.69180 0.00000 -3.06433
										CHANNELS 3 Zrotation Xrotation Yrotation
										JOINT LeftHandRing2
										{
											OFFSET 5.62556 0.00000 0.00000
											CHANNELS 3 Zrotation Xrotation Yrotation
											JOINT LeftHandRing3
											{
												OFFSET 3.56744 0.00000 0.00000
												CHANNELS 3 Zrotation Xrotation Yrotation
												End site
												{
													OFFSET 0.00000 0.00000 0.00000
												}
											}
										}
									}
									JOINT LeftHandPinky1
									{
										OFFSET 11.11390 0.00000 -6.03719
										CHANNELS 3 Zrotation Xrotation Yrotation
										JOINT LeftHandPinky2
										{
											OFFSET 4.52789 0.00000 0.00000
											CHANNELS 3 Zrotation Xrotation Yrotation
											JOINT LeftHandPinky3
											{
												OFFSET 2.46976 0.00000 0.00000
												CHANNELS 3 Zrotation Xrotation Yrotation
												End site
												{
													OFFSET 0.00000 0.00000 0.00000
												}
											}
										}
									}
								}
							}
						}
					}
					JOINT pCube4
					{
						OFFSET 0.00000 10.91090 1.10792
						CHANNELS 3 Zrotation Xrotation Yrotation
						End site
						{
							OFFSET 0.00000 0.00000 0.00000
						}
					}
				}
			}
		}
	}
	JOINT RightUpLeg
	{
		OFFSET -9.98441 0.00000 0.00000
		CHANNELS 3 Zrotation Xrotation Yrotation
		JOINT RightLeg
		{
			OFFSET 0.00000 -42.11790 0.00000
			CHANNELS 3 Zrotation Xrotation Yrotation
			JOINT RightFoot
			{
				OFFSET 0.00000 -45.00020 -0.00001
				CHANNELS 3 Zrotation Xrotation Yrotation
				JOINT RightForeFoot
				{
					OFFSET 0.00000 -3.74820 0.00000
					CHANNELS 3 Zrotation Xrotation Yrotation
					JOINT RightToeBase
					{
						OFFSET 0.00000 0.06325 14.43120
						CHANNELS 3 Zrotation Xrotation Yrotation
						End site
						{
							OFFSET 0.00000 0.00000 0.00000
						}
					}
				}
			}
		}
	}
	JOINT LeftUpLeg
	{
		OFFSET 9.98441 0.00000 0.00000
		CHANNELS 3 Zrotation Xrotation Yrotation
		JOINT LeftLeg
		{
			OFFSET 0.00000 -42.11800 0.00000
			CHANNELS 3 Zrotation Xrotation Yrotation
			JOINT LeftFoot
			{
				OFFSET 0.00000 -45.00070 0.00000
				CHANNELS 3 Zrotation Xrotation Yrotation
				JOINT LeftForeFoot
				{
					OFFSET 0.00000 -3.74824 0.00000
					CHANNELS 3 Zrotation Xrotation Yrotation
					JOINT LeftToeBase
					{
						OFFSET 0.00000 0.06325 14.43110
						CHANNELS 3 Zrotation Xrotation Yrotation
						End site
						{
							OFFSET 0.00000 0.00000 0.00000
						}
					}
				}
			}
		}
	}
}
MOTION
Frames: 4
Frame Time: 0.050000
-0.007204593560695841 0.00858611310138961 -0.030648308272805038 0.009602145195396601 0.01388020011614971 0.03216271292542812 1.7609150546626562 1.7994254959352358 -1.734656957548502 -0.6849039590902317 3.618608104503215 0.4008959865821019 -0.8006657674565318 -1.3686165650976125 0.8438391171228786 -0.703649024896679 -0.49095592059383036 -0.3459490245017311 0.15778285835766376 12.004298418239003 -0.9216939664752639 0.4403913849794048 -0.42375605661213156 -2.5241405117167592 0.8574117338797219 -16.145889870130876 -0.2057001326009751 -6.951611392939329 2.6926296646173826 -16.56114255408361 77.08179611196745 1.0906454644371517 8.968306875057424 -19.173178959678662 7.02802653627988 79.18569683612881 8.041824127178295 0.48275245935192673 3.8402861832380846 4.57401145112011 -0.13976011961441168 -1.5536621835170623 -0.03310723903447756 -0.028813690367135603 -56.186496003301244 -0.026599847344092254 -0.0015263303225935183 -56.204952753582056 -38.73586667377197 -0.012224857384312643 -0.03387473088572222 0.009410320817516289 0.015823805024640876 -0.020762451311681245 0.013210684739878418 -0.043300243017012234 0.04560937762480411 -36.683218397621346 -0.021109332423204383 0.030255830010682536 -0.015518525278156359 -0.046013703852152824 0.039373171059117446 0.012185136661493987 0.03011332698802125 0.008501981821154024 -19.717189269826946 0.0015099112502450355 0.03195754184963313 -0.022581836891948093 0.02145390180496557 -0.012722380288999894 -0.026172403449778444 -0.020019474524059545 0.009598441663740404 24.08718584333158 -0.022234185490146347 -0.01393765368104281 28.881584724843737 0.025782985445326086 0.016186411834220964 28.864341732072372 -0.005937218566505831 -0.013012527858646554 6.66812681233605 1.749382919224677 14.449255501396992 -75.9523193950221 19.222919929667377 -9.351185091012615 15.092510320046099 4.086892506270593 -57.900647270414844 -15.912813868535233 6.7189661522282 -3.0319834696910313 -0.4919395314639772 0.08809557204291359 -8.092222206912137 0.012162886064867756 -0.025730494299846602 44.552061259536174 -0.04128270909148864 0.020061009775240463 44.54869283249756 12.428098593161447 -0.0016971132880473376 0.006285129806887339 -0.04320537326263161 0.007536842123787096 0.016637994118212537 -0.04411981157035838 0.015542836595489483 0.005424838593190476 11.129442716353326 -0.0362434566894781 0.046868749213514464 -0.04619610741397156 -0.040007200406438306 -0.03384518066962334 0.039689321416330955 -0.0025244474632566344 0.015902185511082276 4.748616532892905 0.009188990323984028 -0.04999825464818998 -0.03351386972800335 0.019759651671518403 -0.014561053781482118 -0.010229827253496193 0.017810471039944122 0.03320160065760816 -5.551323881251596 -0.005400226507154471 -0.025471279724469827 -6.6722266392500496 0.02197074297333404 -0.006505051136454419 -6.687195440880725 0.014473105816809152 -0.009694433960604893 -0.014191016238990974 -0.02127561106165285 0.016461846254822863 7.997593133831022 3.4984274544964173 -19.20084779015193 -0.020073833553312125 10.392693166113744 -0.032206968635081254 -5.625411375589601 -15.652761250181614 3.179231817510951 -0.014538725742401481 -0.048923880679388125 0.0011930606878315464 -0.03702796273417123 4.668198233049323 -0.02491777894149076 12.44547442765985 -8.236413317188614 6.87250577065411 -0.014490113340891729 46.3831307380777 0.026343455117347588 -4.324374897031319 -14.791485640932475 -3.8720328530342125 -0.03701479704340157 0.039783310251259286 -0.02409326688029741 0.00502361723643248 -10.725963268063994 -0.01281568682129475 
0.0022860452835573616 -0.03500008313203617 -0.035568455783995624 0.009528005718071234 -0.003607196935849044 0.026270272072541147 1.4840218981020383 1.671338081785708 -1.6732535321219764 -0.6461340670295338 3.695899725876323 0.3704657447420817 -0.7513450609314124 -1.4667867467765374 0.8874798005598136 -0.7586339167359785 -0.6038671433103879 -0.31548635765381056 0.11110166142600328 12.137524314935591 -0.9222370368457912 0.43374118735950534 -0.5111190243869282 -2.559302791408757 0.8463347296622243 -16.150514655151518 -0.19617564529521644 -6.433557158483405 2.566080680149406 -16.416706947173118 77.09177636345072 0.6275419526785754 8.715702108886356 -19.251919320120813 8.022405169662479 75.28474994071689 9.05596284633756 0.4918357475691835 4.44147208758051 4.485649439644425 -0.11788162568018504 -1.561117163698804 0.026936608761122548 0.040606788398681065 -56.232128816470826 -0.04526720326379648 -0.011037611580791109 -56.22231650822785 -38.756857855154315 -0.024914858165261455 0.028159354224643194 0.00803053799613839 0.02984827093018944 0.045038295316392946 0.030873436474547905 -0.03093367211212293 0.003373838567357823 -36.71604960804611 0.03864098181735996 -0.00974180456737428 0.017016143158825093 -0.0029334204293793666 0.026358317501932852 0.001988102268999927 0.01755964860731901 0.0014295120475613372 -19.805730405650337 0.025282881450927254 -0.016831323664822182 0.016808293798261664 0.003983624665483614 -0.048200670473787156 0.008931392523068108 0.032437309105266834 0.03583696496142133 24.033067004835274 0.0008310301045176952 -0.0074609643327932995 28.875128273934646 -0.02619744070124897 -0.0329213798368345 28.910039396189273 -0.023899034449869405 -0.0381876864262764 6.308819453767422 1.621091693987146 14.516400091937989 -76.61455344321648 17.584989789570738 -9.137443744124868 15.520032889728046 6.672526401849292 -55.48157615319075 -17.00381584141613 8.776328273831963 -4.249376804681999 -0.4712336611281598 0.11561942933661945 -8.111879009000297 0.002763199551502294 0.015068863523637975 44.59471636406872 0.0072982803241385 -0.023212809184246178 44.567080106922305 12.462103693357209 -0.004104151920195664 0.01215376887522054 0.012425842016862868 0.0019781547978910603 0.01723056967444686 0.024580427868522867 -0.03132517750132237 0.048099169314789296 11.141159437478715 -0.025787142028464966 -0.005955268584581468 -0.034029096473848226 -0.043182477918234916 0.009951652678248412 -0.012141109247586379 0.0138441731367942 0.001415661728571085 4.768142909283175 -0.0023207474994667993 0.024908156565708602 0.04659838829040889 -0.026050863080045103 -0.04940521136556715 -0.02178420888865104 -0.02361320387365188 -0.008624379885187968 -5.580863084992255 0.03881793158738206 0.022465484311887413 -6.721323708929669 0.03838699836531628 0.01234137129559741 -6.7091750037591185 0.010123706150748537 -0.02805107571068705 0.017644580509729137 -0.026702887870725035 -0.005520862600431393 8.015863202041054 3.5063541993967293 -19.251208433452 -0.04332661692433596 10.373078339854077 0.002748392187114951 -5.6494673269031095 -15.671356946336141 3.159614367483214 0.044024064369058584 -0.026204447945218264 -0.019638126900182615 -0.005911305092311711 4.693592158865498 0.001431015101331519 12.416526269110125 -8.219077142124288 6.8748330275095935 -0.019602719105521523 46.36383483927231 -0.03922320336505046 -4.369770660590911 -14.764909307220213 -3.845540053126833 0.007215881676722028 0.018783881403380172 0.00797650872103042 -0.04158736891806539 -10.759010212337284 0.04652675646166611 
0.014575238253800896 -0.04017290660930257 0.046734231823414685 0.04962823294358509 0.03845127998157297 0.010346326089479753 0.8899271234159533 1.539924570016271 -1.5593304818937976 -0.6521888266296706 3.7042274128497716 0.3481103772929825 -0.8377504171577956 -1.503871371224726 0.9535806946649675 -0.7734505946190914 -0.6203613651535334 -0.35426183691623636 0.08039064001697875 12.317373863626857 -0.9348486809797029 0.44416565505609473 -0.5979951742725527 -2.764857274351828 0.8333520908849514 -16.096551054395665 -0.2661467436897702 -5.501381079684345 2.303251048503033 -16.235568731022422 76.68495862197156 1.546759287856921 8.491623591483597 -19.297745084213922 8.552824945792985 73.74797278103793 10.09713050383426 0.4466519411390469 4.78050358344319 4.568478279229025 -0.09490458252898747 -1.5959446882538044 -0.034377488436777605 -0.0063225726834215 -56.24029283345682 -0.0032178047936224 0.045926124903420865 -56.20129160800629 -38.75386452319114 -0.007484191451151671 0.02158914675860608 0.00017061645266380095 0.04029472618188323 0.0173683016703524 0.02934565942662059 -0.013666927381589354 0.004031570787267197 -36.661800601924256 -0.011662427893761974 -0.044955108528880884 0.008540681489350301 -0.008292612934404246 0.023726361135274116 -0.017169566269989143 0.0470515058790406 0.004706748229766195 -19.72901828486422 0.004889449722571675 0.015902896420157322 0.02187267802522092 -0.027478458105711943 -0.023513256514161862 -0.04361348374423983 -0.006773798461585311 -0.016747410068429985 24.103093183369594 -0.003993367561934902 0.011874078730512794 28.81554361423113 -0.04439731623942369 -0.0015533231131547886 28.876902112670436 -0.02178215944439473 -0.012735086777370334 5.641750727943582 1.5646989091558723 14.546090658301209 -76.87489984469688 16.856632211005486 -8.95939821617478 15.900366048333032 7.733881126997876 -55.921999804072605 -17.974714228364267 10.535478301079083 -5.416952031190725 -0.4307199085017672 0.06727711449894287 -8.170678442962293 0.008364716645751634 -0.0015271110567322299 44.547537116744124 -0.0475229600774133 0.0034038668691164496 44.52290952497828 12.45872755954547 -0.04885004434389434 0.01164964158879184 -0.006816901939886753 -0.030914760114305242 -0.033367586082020555 0.022170430185674737 0.013135977368322886 0.014739660165966697 11.119504007738305 0.02374805831697635 -0.014357083469540515 -0.011043673963035735 -0.022501232490504636 0.014392838989000706 0.03414552605313527 0.03973072922552295 0.020475873323033706 4.815599050888715 -0.0285265088938434 -0.005903815811567347 0.01364742866434633 0.034191323017866 -0.009415362978688304 -0.01907786029061797 -0.03320039419954787 -0.006499263230072707 -5.633356990613583 0.022791990558787133 -0.0030438945908005887 -6.715713521253861 0.03689509309249211 0.008256434302222787 -6.75707038237675 0.01573941295563084 -0.03944611208144256 -0.031026672227513354 -0.004909956789473973 0.0032627505957635696 7.998460692684213 3.5392679666859297 -19.233517749144298 0.029951282410148907 10.408864592218908 0.05647037807930248 -5.592955382927878 -15.647182375684292 3.154248490960179 0.027661231184940818 -0.0304765123768661 -0.005759851948302836 0.025985698304922887 4.680957880363664 0.030002627253656346 12.452681959746267 -8.221115931245151 6.883999208440768 -0.017196972385614757 46.42130690159461 0.029607143866173795 -4.313424008498691 -14.796433609381586 -3.8497217958533705 0.04943253046034652 0.023278505738975594 -0.004047071021012162 -0.03814145728454623 -10.76880211294327 0.006625038540653443 
-0.031594763137103916 0.01434001850631902 -0.04966142868104559 -0.028270817042105396 0.007243416906202881 -0.023133068941005187 0.1846563211138845 1.4496667411588844 -1.4430835912437092 -0.5737946252235407 3.8331506202539316 0.3530670900792525 -0.8155158832395857 -1.5676514307151452 0.9974828954788363 -0.7481469056802692 -0.6378395716865408 -0.4215719069892927 0.06090465511269348 12.466182936742864 -0.933898282911604 0.46482864405786856 -0.5244435827282619 -2.9847041183647494 0.9200644207613433 -15.962382452419407 -0.24483197173316956 -4.325979940713221 1.9116313163227483 -15.810499104261181 75.63522548979383 3.5222067715291794 8.532667933268467 -18.830594888832263 8.624787052639716 75.12442343325007 11.176937552530328 0.3863215114397922 4.722292461126409 4.5696376639656355 -0.08669866511975446 -1.5593072390045748 -0.004191510332576268 -0.015002279731358075 -56.22244300185298 0.0019202357242322462 -0.020088520204956155 -56.193251850950936 -38.81612953168042 -0.009590395039394848 -0.00016357381343447733 -0.031305348292425865 -0.009373652946514377 -0.04796493906271143 0.0037967176371806904 0.003026571012962109 -0.03303473682277632 -36.7083503006133 0.04014510997352878 0.03264026146474646 -0.033817429836754336 0.0074749458169338315 -0.013675443351272387 0.010623429422013633 0.015981921726433423 0.03797571559997652 -19.768843210370257 0.001092926176625594 0.038319381538883604 0.030658564353326055 -0.02178562639423498 0.013378850462269791 -0.0030616745889620487 0.02446023527991685 0.03715648871361588 24.086004551147564 0.007160992597369325 -0.011949587048845967 28.881222972636934 -0.040378944393618936 0.016341035363544327 28.840620603989855 -0.04047254194896931 0.0006147406874211692 4.993075913015035 1.4355408990559566 14.429597821287706 -76.71965121011546 17.577867585276994 -8.913572632292762 16.540128425229334 6.42526308572552 -59.82316121817662 -18.42847775620972 11.807250559105746 -6.67762064810967 -0.5238430170801114 0.029247572528829847 -8.102913141333794 -0.03011754742343908 0.04611241400291993 44.54979952090216 -0.008482147267555326 0.04337370399653224 44.584933981852615 12.476705099117892 0.0017317437523847376 -0.004549458280561572 -0.042116336745726964 -0.005719251128614691 -0.007704397177155405 -0.004382790946542618 -0.002143707403389077 0.03228124531113741 11.118746618074242 0.02476167979701264 0.04538966536017896 0.0015291444678185945 0.04940000388312085 -0.017986070285011483 -0.035438611422673634 0.004751022804375612 -0.043748140921690576 4.80057729001294 0.021258382393172078 0.03959849448728742 0.0372403209517756 -0.017402185081244075 -0.034970977443372554 0.036472775838517275 -0.02210942912827311 0.03611114210032968 -5.571965367667186 -0.04500036876579303 -0.014202355719279225 -6.698790135924095 -0.03599919103820829 -0.028336279991761398 -6.7327007869083015 -0.015012087384944887 0.02164657889738829 -0.006410298815547894 -0.020406890774360326 0.022232781491006277 8.074664075493681 3.4750530929248096 -19.220961797084094 -0.0055061857385050135 10.39401466556986 -0.021298518306367285 -5.6099670042620176 -15.700835269146538 3.188930379069932 -0.02024961640577084 0.011843321676899509 0.001398979782394647 -0.009052380002725405 4.6909553847893415 0.009975968866347234 12.471105511731666 -8.208476157636255 6.877160099250983 -0.01180138988173821 46.35856573720877 -0.007665777912767695 -4.314728564053024 -14.723792965362062 -3.8472846900111852 0.02359727422113446 0.012891721921173828 -0.017857341455696566 0.009522625893546183 -10.736353526440416 -0.014283263230929025 
